<svg width="40" height="40" viewBox="0 0 40 40" fill="none" xmlns="http://www.w3.org/2000/svg">
<path d="M33.7886 33.7886C31.0615 36.5157 27.5869 38.3729 23.8043 39.1253C20.0216 39.8777 16.1008 39.4916 12.5377 38.0157C8.97451 36.5397 5.92903 34.0404 3.78634 30.8336C1.64366 27.6269 0.5 23.8567 0.5 20C0.5 16.1433 1.64365 12.3731 3.78634 9.16638C5.92903 5.95962 8.97451 3.46026 12.5377 1.98435C16.1008 0.508441 20.0216 0.122275 23.8043 0.874687C27.5869 1.6271 31.0615 3.48429 33.7886 6.21142" stroke="#4E4E4E"/>
<path d="M14.4697 20.5303C14.1768 20.2374 14.1768 19.7626 14.4697 19.4697L19.2426 14.6967C19.5355 14.4038 20.0104 14.4038 20.3033 14.6967C20.5962 14.9896 20.5962 15.4645 20.3033 15.7574L16.0607 20L20.3033 24.2426C20.5962 24.5355 20.5962 25.0104 20.3033 25.3033C20.0104 25.5962 19.5355 25.5962 19.2426 25.3033L14.4697 20.5303ZM40 20.75H15V19.25H40V20.75Z" fill="#E84B0F"/>
</svg>
