<svg width="56" height="56" viewBox="0 0 56 56" fill="none" xmlns="http://www.w3.org/2000/svg">
<circle cx="28" cy="28" r="28" fill="#C4C4C4"/>
<path d="M21.3138 20.3138C21.7322 19.8954 22.4106 19.8954 22.829 20.3138L28.5 25.9848L34.171 20.3138C34.5894 19.8954 35.2678 19.8954 35.6862 20.3138C36.1046 20.7322 36.1046 21.4106 35.6862 21.829L30.0152 27.5L35.6862 33.171C36.1046 33.5894 36.1046 34.2678 35.6862 34.6862C35.2678 35.1046 34.5894 35.1046 34.171 34.6862L28.5 29.0152L22.829 34.6862C22.4106 35.1046 21.7322 35.1046 21.3138 34.6862C20.8954 34.2678 20.8954 33.5894 21.3138 33.171L26.9848 27.5L21.3138 21.829C20.8954 21.4106 20.8954 20.7322 21.3138 20.3138Z" fill="white"/>
</svg>
