<svg width="205" height="95" viewBox="0 0 205 95" fill="none" xmlns="http://www.w3.org/2000/svg">
<path fill-rule="evenodd" clip-rule="evenodd" d="M59.2522 40.3313H36.7772V19.8281H0L4.65391 26.5505C6.24305 28.7913 7.71868 30.92 9.19431 33.1608L20.6588 49.7426C24.5182 55.2325 28.264 60.8344 32.1233 66.3244L35.5286 71.2541C35.7557 71.5902 35.8692 71.7022 36.0962 72.0384C36.3232 72.4865 36.4367 72.7106 36.8908 72.8226C37.0043 72.3745 55.1659 46.2694 57.8901 42.348C58.2306 41.7878 58.9117 40.7794 59.2522 40.3313Z" fill="black"/>
<path fill-rule="evenodd" clip-rule="evenodd" d="M70.8281 48.289H74.6875L78.5468 42.9111C79.2279 42.0148 79.7954 41.1185 80.4765 40.2222C80.817 39.662 82.1791 37.8694 82.5197 37.5332V48.289H85.6979L91.941 38.3175C92.168 37.9814 92.2815 37.7573 92.5085 37.6453V48.289H95.6868V34.7323H100.568V48.289H104.541V34.7323H110.103L110.33 31.3711H92.5085L89.2167 36.749C88.0816 38.5416 87.0601 40.3342 85.925 42.0148V31.3711H82.7467C82.4061 31.4831 74.4604 43.2472 73.8929 44.0315L70.8281 48.289Z" fill="#E84B0F"/>
<path fill-rule="evenodd" clip-rule="evenodd" d="M36.6641 19.8309V40.3341H59.139H67.0847C67.4253 40.222 67.1983 40.4461 67.4253 40.11L69.3549 37.309H39.7288C39.7288 36.5248 39.6153 0.784274 39.8423 0H36.6641V19.8309Z" fill="#E84B0F"/>
<path fill-rule="evenodd" clip-rule="evenodd" d="M56.7539 68.7936H60.4997C61.5213 67.225 65.0401 62.5194 66.4023 60.7267C67.0833 59.8304 67.6509 58.9341 68.3319 58.0378V68.7936H71.5102C72.0778 68.0093 77.8668 58.3739 78.3208 57.9258V68.7936H81.4991V51.8757H78.2073C77.9803 52.5479 76.9587 53.8924 76.6182 54.5646C75.4831 56.4693 72.6453 60.9508 71.6237 62.5194V51.8757C67.6509 51.8757 68.6725 51.3155 66.8563 53.8924C66.2887 54.6766 65.8347 55.2368 65.3807 56.0211C64.4726 57.4776 63.451 58.8221 62.4294 60.2786C61.4078 61.7351 60.4997 63.0796 59.4781 64.5361L56.7539 68.7936Z" fill="black"/>
<path fill-rule="evenodd" clip-rule="evenodd" d="M157.893 68.7902V51.9844H154.147V61.6197C154.147 63.3003 154.147 62.7401 154.034 62.6281L148.585 54.6733C148.131 54.0011 147.223 52.4325 146.769 51.9844H143.137V68.7902H146.996V57.8104C147.337 58.1465 152.104 65.205 152.672 66.1013C152.899 66.4374 154.261 68.6782 154.715 68.7902H157.893Z" fill="black"/>
<path fill-rule="evenodd" clip-rule="evenodd" d="M42.9062 34.3972H71.3973C71.7378 33.837 73.2134 31.8203 73.4404 31.3721H45.971V7.50781H42.9062V34.3972Z" fill="#E84B0F"/>
<path fill-rule="evenodd" clip-rule="evenodd" d="M117.484 68.7932H121.344V61.9588C123.16 61.9588 127.246 61.8467 128.722 61.9588V68.7932H132.581V51.9873H128.722V58.3735H121.457V51.9873C120.549 51.8753 118.619 51.9873 117.598 51.9873V68.7932H117.484Z" fill="black"/>
<path fill-rule="evenodd" clip-rule="evenodd" d="M179.914 55.1215C180.595 55.0094 182.638 55.0094 183.206 55.2335C185.022 55.9057 185.022 58.7067 183.206 59.379C182.638 59.603 180.482 59.603 179.914 59.491V55.1215ZM176.055 68.7902C176.849 68.7902 179.233 68.9023 179.801 68.6782V62.5161H181.73C182.411 63.0762 184.455 68.23 185.136 68.6782H189.222L185.476 61.9559C188.314 60.7234 189.449 56.0178 186.838 53.5529C185.703 52.5446 184.341 51.9844 182.184 51.9844C180.141 51.9844 177.985 51.9844 175.941 51.9844L176.055 68.7902Z" fill="black"/>
<path fill-rule="evenodd" clip-rule="evenodd" d="M161.297 68.6809H173.556V65.3197C172.194 65.2077 166.972 65.3197 165.27 65.3197V61.7344H171.286V58.4853H165.27V55.2362H172.988V51.875H161.297V68.6809Z" fill="black"/>
<path fill-rule="evenodd" clip-rule="evenodd" d="M89.673 61.8438C90.0135 60.8355 91.3756 56.3539 91.8297 55.7937L93.7593 61.9559L89.673 61.8438ZM83.3164 68.7902H87.1757C87.5163 68.6782 87.4028 68.6782 87.6298 67.8939C87.7433 67.5578 87.8568 67.2217 87.9703 66.8856C88.1973 66.3254 88.4244 65.205 88.7649 64.8689H94.4404C94.7809 64.9809 94.6674 64.8689 94.8944 65.7652L95.916 68.7902H100.116C99.8889 67.6699 94.0999 52.2085 93.8728 51.9844H89.673L83.3164 68.7902Z" fill="black"/>
<path fill-rule="evenodd" clip-rule="evenodd" d="M108.741 69.2414C110.444 69.2414 111.92 68.9053 113.168 68.121C114.076 67.6729 115.779 66.4404 116.12 65.5441L113.509 63.3033C112.601 63.9756 112.147 65.5441 108.855 65.5441C103.179 65.5441 102.498 56.8051 107.493 55.2365C108.628 54.9004 110.104 55.0124 111.125 55.4606C112.26 56.0208 112.714 56.693 113.395 57.3653L116.006 54.9004C115.552 53.8921 113.963 52.8837 112.941 52.3235C111.579 51.6513 109.763 51.4272 108.06 51.5392C104.655 51.7633 102.158 53.8921 101.136 56.0208C97.8445 62.5191 102.044 69.2414 108.741 69.2414Z" fill="black"/>
<path fill-rule="evenodd" clip-rule="evenodd" d="M49.1484 28.3446H75.4828L77.526 25.3195H59.1373C57.3212 25.3195 53.8024 25.4316 52.0997 25.3195L52.2132 12.2109H49.1484V28.3446Z" fill="#F0DB03"/>
<path fill-rule="evenodd" clip-rule="evenodd" d="M195.125 68.6809C195.579 68.7929 198.644 68.7929 199.098 68.6809C199.098 66.8882 199.098 64.9836 199.098 63.0789C199.098 61.6224 198.984 61.8465 199.665 60.7261C200.346 59.6057 205 52.2111 205 51.875H200.914C200.46 52.3232 199.552 54.2278 199.098 55.0121C198.757 55.5723 197.509 57.9251 197.282 58.1492L193.649 51.875H189.336C189.336 52.3232 192.968 58.0372 193.536 58.9335C195.011 61.3983 195.238 60.9502 195.238 62.9669C195.125 64.9836 195.125 66.7762 195.125 68.6809Z" fill="black"/>
<path d="M139.73 51.875H135.871V68.6809H139.73V51.875Z" fill="black"/>
<path d="M7.71868 92.9928C7.15113 93.553 6.01603 94.0011 4.76742 94.0011C1.92967 94.0011 0 92.0965 0 89.2955C0 86.7186 1.70265 84.5898 4.76742 84.5898C6.01603 84.5898 6.92411 84.926 7.60517 85.4862L6.8106 86.7186C6.24305 86.3825 5.6755 86.1584 4.76742 86.1584C3.06477 86.1584 1.70265 87.3908 1.70265 89.4075C1.70265 91.3122 3.06477 92.6567 4.88093 92.6567C5.6755 92.6567 6.47007 92.4326 7.03762 91.8724L7.71868 92.9928Z" fill="black"/>
<path d="M8.62891 87.0547H14.9855V88.5112H12.6018V93.8891H11.0126V88.5112H8.62891V87.0547Z" fill="black"/>
<path d="M18.5025 87.0547H19.9781L23.2699 93.8891H21.5673L20.8862 92.4326H17.5944L16.9134 93.8891H15.3242L18.5025 87.0547ZM18.162 90.9761H20.0916L19.1836 88.8473L18.162 90.9761Z" fill="black"/>
<path d="M29.8497 91.0869H26.5579V93.7758H24.9688V86.9414H26.5579V89.5183H29.8497V86.9414H31.4388V93.7758H29.8497V91.0869Z" fill="black"/>
<path d="M34.168 87.0547H35.7571V90.1918L38.4814 87.0547H40.638L37.6868 90.1918L40.8651 93.8891H38.5949L35.7571 90.5279V93.8891H34.168V87.0547Z" fill="black"/>
<path d="M42.6797 93.8891V87.0547H44.2688V91.3122L47.9012 87.0547H49.2633V93.8891H47.6741V89.5195L44.0418 93.777H42.6797V93.8891Z" fill="black"/>
<path d="M55.7311 89.6289C56.1851 89.6289 56.5257 89.965 56.5257 90.4132C56.5257 90.8613 56.1851 91.1975 55.7311 91.1975C55.2771 91.1975 54.9365 90.8613 54.9365 90.4132C54.9365 90.0771 55.2771 89.6289 55.7311 89.6289Z" fill="#E84B0F"/>
<path d="M62.4302 93.8916V84.8164H64.0193V91.3147L68.9002 84.8164H70.3759V93.8916H68.7867V87.3933L63.9058 93.8916H62.4302Z" fill="black"/>
<path d="M77.9791 91.0947H74.6873V93.7836H73.0981V86.9492H74.6873V89.5261H77.9791V86.9492H79.5682V93.7836H77.9791V91.0947Z" fill="black"/>
<path d="M88.1971 93.2183C87.7431 93.6664 86.7215 94.0025 85.6999 94.0025C83.3162 94.0025 81.7271 92.546 81.7271 90.4173C81.7271 88.5126 82.9757 86.832 85.5864 86.832C86.608 86.832 87.5161 87.1681 87.9701 87.5043L87.289 88.7367C86.835 88.5126 86.381 88.2885 85.6999 88.2885C84.4513 88.2885 83.5432 88.9608 83.5432 90.3052C83.5432 91.5377 84.4513 92.3219 85.9269 92.3219C86.4945 92.3219 87.1755 92.2099 87.6296 91.8738L88.1971 93.2183Z" fill="black"/>
<path d="M89.5591 87.0547H95.9156V88.5112H93.5319V93.8891H91.9428V88.5112H89.5591V87.0547Z" fill="black"/>
<path d="M97.8442 93.8891V87.0547C98.2983 87.0547 99.5469 87.0547 100.114 87.0547C102.498 87.0547 103.179 88.1751 103.179 89.5195C103.179 90.864 102.158 91.9844 100.341 91.9844C100.114 91.9844 99.7739 91.9844 99.4334 91.9844V94.0011H97.8442V93.8891ZM99.4334 88.5112V90.3038C99.6604 90.3038 100.001 90.3038 100.341 90.3038C101.023 90.3038 101.477 89.9677 101.477 89.2955C101.477 88.7353 101.136 88.3992 100.228 88.3992C100.114 88.5112 99.7739 88.5112 99.4334 88.5112Z" fill="black"/>
<path d="M109.084 92.2085C108.517 93.2168 107.835 93.8891 106.814 93.8891C106.36 93.8891 106.019 93.777 105.792 93.553L106.36 92.2085C106.587 92.3205 106.7 92.3205 106.927 92.3205C107.268 92.3205 107.381 92.0964 107.495 91.9844L107.608 91.7603L104.43 87.0547H106.473L108.517 90.3038L110.106 87.0547H111.808L109.084 92.2085Z" fill="black"/>
<path d="M113.512 87.0547H115.101L117.599 89.8557L119.982 87.0547H121.571V93.8891H119.982V89.5195L117.712 92.2085H117.485L115.215 89.6316V94.0011H113.512V87.0547Z" fill="black"/>
<path d="M124.18 87.0547H128.948V88.5112H125.769V89.6316H128.607V91.0881H125.769V92.3205H129.061V93.777H124.18V87.0547Z" fill="black"/>
<path d="M136.327 91.0908H133.035V93.7797H131.446V86.9453H133.035V89.5222H136.327V86.9453H137.916V93.7797H136.327V91.0908Z" fill="black"/>
<path d="M139.844 87.0547H146.201V88.5112H143.817V93.8891H142.228V88.5112H139.844V87.0547Z" fill="black"/>
<path d="M151.647 89.6289C152.101 89.6289 152.441 89.965 152.441 90.4132C152.441 90.8613 152.101 91.1975 151.647 91.1975C151.193 91.1975 150.852 90.8613 150.852 90.4132C150.966 90.0771 151.306 89.6289 151.647 89.6289Z" fill="#E84B0F"/>
<path d="M165.383 92.9928C164.816 93.553 163.681 94.0011 162.432 94.0011C159.594 94.0011 157.665 92.0965 157.665 89.2955C157.665 86.7186 159.367 84.5898 162.432 84.5898C163.681 84.5898 164.589 84.926 165.27 85.4862L164.589 86.7186C164.021 86.3825 163.454 86.1584 162.546 86.1584C160.843 86.1584 159.481 87.3908 159.481 89.4075C159.481 91.3122 160.843 92.6567 162.659 92.6567C163.454 92.6567 164.248 92.4326 164.816 91.8724L165.383 92.9928Z" fill="black"/>
<path d="M167.312 87.0547H172.08V88.5112H168.902V89.6316H171.739V91.0881H168.902V92.3205H172.193V93.777H167.312V87.0547Z" fill="black"/>
<path d="M174.575 93.8891V87.0547C175.029 87.0547 176.278 87.0547 176.845 87.0547C179.229 87.0547 179.91 88.1751 179.91 89.5195C179.91 90.864 178.888 91.9844 177.072 91.9844C176.845 91.9844 176.505 91.9844 176.164 91.9844V94.0011H174.575V93.8891ZM176.164 88.5112V90.3038C176.391 90.3038 176.732 90.3038 177.072 90.3038C177.753 90.3038 178.207 89.9677 178.207 89.2955C178.207 88.7353 177.867 88.3992 176.959 88.3992C176.845 88.5112 176.505 88.5112 176.164 88.5112Z" fill="black"/>
<path d="M182.067 87.0535C182.521 87.0535 183.883 86.9414 184.678 86.9414C186.494 86.9414 187.289 87.7257 187.289 88.622C187.289 89.2942 186.948 89.9665 186.267 90.1905C187.062 90.3026 187.629 90.8628 187.629 91.7591C187.629 93.2156 186.381 93.8878 184.678 93.8878C183.883 93.8878 182.635 93.8878 182.181 93.7758V87.0535H182.067ZM183.656 88.51V89.7424H184.678C185.245 89.7424 185.586 89.5183 185.586 89.0702C185.586 88.622 185.245 88.51 184.564 88.51C184.337 88.51 183.883 88.51 183.656 88.51ZM183.656 91.0869V92.3193C183.77 92.3193 184.337 92.4313 184.678 92.4313C185.472 92.4313 185.813 92.2072 185.813 91.7591C185.813 91.3109 185.359 91.0869 184.678 91.0869H183.656Z" fill="black"/>
<path d="M189.79 93.8891V87.0547H191.379V91.3122L195.011 87.0547H196.373V93.8891H194.784V89.5195L191.152 93.777H189.79V93.8891Z" fill="black"/>
<path d="M204.998 93.2183C204.544 93.6664 203.523 94.0025 202.501 94.0025C200.117 94.0025 198.528 92.546 198.528 90.4173C198.528 88.5126 199.777 86.832 202.387 86.832C203.409 86.832 204.317 87.1681 204.771 87.5043L204.09 88.7367C203.636 88.5126 203.182 88.2885 202.501 88.2885C201.252 88.2885 200.344 88.9608 200.344 90.3052C200.344 91.5377 201.252 92.3219 202.728 92.3219C203.296 92.3219 203.977 92.2099 204.431 91.8738L204.998 93.2183Z" fill="black"/>
</svg>
