<svg width="15" height="15" viewBox="0 0 15 15" fill="none" xmlns="http://www.w3.org/2000/svg">
<g clip-path="url(#clip0)">
<path d="M14.8695 2.98047L10.3203 7.50036L14.8695 12.0203C14.9517 11.8484 15.0016 11.6583 15.0016 11.4554V3.54528C15.0016 3.34234 14.9517 3.15235 14.8695 2.98047Z" fill="#777777"/>
<path d="M13.6781 2.22656H1.31481C1.11187 2.22656 0.921885 2.27646 0.75 2.35869L6.56435 8.14375C7.07845 8.65786 7.91446 8.65786 8.42856 8.14375L14.2429 2.35869C14.071 2.27646 13.881 2.22656 13.6781 2.22656Z" fill="#777777"/>
<path d="M0.132129 2.98047C0.0498926 3.15235 0 3.34234 0 3.54528V11.4554C0 11.6584 0.0498926 11.8484 0.132129 12.0203L4.68132 7.50036L0.132129 2.98047Z" fill="#777777"/>
<path d="M9.69372 8.12109L9.04998 8.76483C8.19337 9.62145 6.79951 9.62145 5.9429 8.76483L5.29919 8.12109L0.75 12.641C0.921885 12.7232 1.11187 12.7731 1.31481 12.7731H13.6781C13.881 12.7731 14.071 12.7232 14.2429 12.641L9.69372 8.12109Z" fill="#777777"/>
</g>
<defs>
<clipPath id="clip0">
<rect width="15" height="15" fill="white"/>
</clipPath>
</defs>
</svg>
