<svg width="15" height="15" viewBox="0 0 15 15" fill="none" xmlns="http://www.w3.org/2000/svg">
<g clip-path="url(#clip0)">
<path d="M7.28608 0.00381776C4.30591 0.108385 1.83013 2.43347 1.54411 5.40133C1.48567 5.9949 1.5195 6.57002 1.62407 7.12054C1.62407 7.12054 1.6333 7.18512 1.66405 7.30814C1.75632 7.72026 1.89471 8.12008 2.06694 8.49529C2.66667 9.91617 4.05372 12.2935 7.16614 14.88C7.35682 15.04 7.63669 15.04 7.83045 14.88C10.9429 12.2966 12.3299 9.91925 12.9327 8.49221C13.108 8.117 13.2433 7.72026 13.3356 7.30507C13.3633 7.18512 13.3756 7.11746 13.3756 7.11746C13.4463 6.7484 13.4832 6.37011 13.4832 5.9826C13.4832 2.6057 10.6876 -0.116127 7.28608 0.00381776ZM7.49829 8.95969C5.89288 8.95969 4.59194 7.65875 4.59194 6.05334C4.59194 4.44792 5.89288 3.14698 7.49829 3.14698C9.10371 3.14698 10.4046 4.44792 10.4046 6.05334C10.4046 7.65875 9.10371 8.95969 7.49829 8.95969Z" fill="#777777"/>
</g>
<defs>
<clipPath id="clip0">
<rect width="15" height="15" fill="white"/>
</clipPath>
</defs>
</svg>
