<svg width="30" height="30" viewBox="0 0 30 30" fill="none" xmlns="http://www.w3.org/2000/svg">
<path d="M28.75 16.2227H1.25C0.559998 16.2227 0 15.6627 0 14.9727C0 14.2827 0.559998 13.7227 1.25 13.7227H28.75C29.44 13.7227 30 14.2827 30 14.9727C30 15.6627 29.44 16.2227 28.75 16.2227Z" fill="white"/>
<path d="M28.75 6.64063H1.25C0.559998 6.64063 0 6.08063 0 5.39063C0 4.70062 0.559998 4.14062 1.25 4.14062H28.75C29.44 4.14062 30 4.70062 30 5.39063C30 6.08063 29.44 6.64063 28.75 6.64063Z" fill="white"/>
<path d="M28.75 25.8086H1.25C0.559998 25.8086 0 25.2486 0 24.5586C0 23.8686 0.559998 23.3086 1.25 23.3086H28.75C29.44 23.3086 30 23.8686 30 24.5586C30 25.2486 29.44 25.8086 28.75 25.8086Z" fill="white"/>
</svg>
