<svg width="15" height="11" viewBox="0 0 15 11" fill="none" xmlns="http://www.w3.org/2000/svg">
<path d="M14.6909 1.64337C14.5181 1.00076 14.0114 0.494203 13.3689 0.321168C12.1951 0 7.49983 0 7.49983 0C7.49983 0 2.80472 0 1.63092 0.308991C1.00076 0.481843 0.481751 1.00086 0.3089 1.64337C0 2.81708 0 5.2512 0 5.2512C0 5.2512 0 7.69759 0.3089 8.85903C0.481935 9.50154 0.988405 10.0081 1.63102 10.1811C2.81708 10.5024 7.50001 10.5024 7.50001 10.5024C7.50001 10.5024 12.1951 10.5024 13.3689 10.1934C14.0115 10.0205 14.5181 9.5139 14.6911 8.87139C14.9999 7.69759 14.9999 5.26356 14.9999 5.26356C14.9999 5.26356 15.0123 2.81708 14.6909 1.64337ZM6.00496 7.49992V3.00248L9.90932 5.2512L6.00496 7.49992Z" fill="#777777"/>
</svg>
